<?xml version="1.0" encoding="UTF-8"?>
<svg version="1.1" xmlns="http://www.w3.org/2000/svg" width="500" height="500">
<defs>
<linearGradient id="purpleBlueGradient" x1="0%" y1="0%" x2="100%" y2="100%">
<stop offset="0%" style="stop-color:#667eea;stop-opacity:1" />
<stop offset="100%" style="stop-color:#764ba2;stop-opacity:1" />
</linearGradient>
</defs>
<path d="M0 0 C165 0 330 0 500 0 C500 165 500 330 500 500 C335 500 170 500 0 500 C0 335 0 170 0 0 Z " fill="#FEFEFE" transform="translate(0,0)"/>
<path d="M0 0 C-1.42429189 3.32334774 -3.12569618 5.1747838 -5.8125 7.5625 C-13.12662183 14.73663863 -18.40719721 23.47067112 -24 32 C-24.61746094 32.9384375 -25.23492187 33.876875 -25.87109375 34.84375 C-29.69401317 40.66021636 -33.49090898 46.49313813 -37.2734375 52.3359375 C-38.82320973 54.72721502 -40.37877734 57.11455151 -41.9375 59.5 C-57.72879865 83.70520616 -72.64000362 108.51496816 -87.375 133.375 C-87.90416016 134.26566162 -88.43332031 135.15632324 -88.97851562 136.07397461 C-91.48223274 140.31652161 -93.87220832 144.55624459 -96 149 C-95.26136719 148.12859375 -94.52273437 147.2571875 -93.76171875 146.359375 C-88.2162063 139.84033545 -82.60713685 133.40357245 -76.7956543 127.12011719 C-74.32326637 124.44644147 -71.88433553 121.75246335 -69.5 119 C-64.77900368 113.56471582 -59.88522637 108.28714658 -55 103 C-54.4539209 102.40735352 -53.9078418 101.81470703 -53.34521484 101.20410156 C-47.04084315 94.36820953 -40.68502787 87.5919478 -34.125 81 C-33.62629395 80.49670166 -33.12758789 79.99340332 -32.61376953 79.47485352 C-29.9119376 76.78415673 -27.1360696 74.23337151 -24.2421875 71.75 C-19.24256106 67.41802184 -14.64006 62.71036394 -10 58 C-4.77200471 52.69279266 0.45724443 47.48584017 6.11474609 42.63574219 C9.27189334 39.89644064 12.27884657 36.99934831 15.3125 34.125 C21.33814345 28.47065762 27.48438215 23.08927146 34 18 C34.65291016 17.48518066 35.30582031 16.97036133 35.97851562 16.43994141 C38.18746973 14.70141271 40.40483866 12.97418841 42.625 11.25 C43.31770996 10.70657959 44.01041992 10.16315918 44.72412109 9.60327148 C58.470032 -0.96538051 58.470032 -0.96538051 66 0 C66 0.66 66 1.32 66 2 C64.41796875 3.375 64.41796875 3.375 62.1875 5 C53.58800212 11.51395036 45.91507558 18.73564138 39 27 C38.11135344 28.01735654 37.22054048 29.03282291 36.328125 30.046875 C30.46325031 36.74184013 24.92972142 43.59875166 19.6418457 50.75805664 C15.85022102 55.8906442 11.94501261 60.92216861 8 65.9375 C2.42638152 73.05210935 -2.85429007 80.32759459 -8.01953125 87.7421875 C-11.04069376 92.07746119 -14.14193258 96.35182256 -17.25 100.625 C-24.99230241 111.3061499 -32.53932613 122.1206169 -40 133 C-40.51739746 133.74958984 -41.03479492 134.49917969 -41.56787109 135.27148438 C-42.87281557 137.17138971 -44.15924052 139.08207773 -45.4375 141 C-46.11683594 142.010625 -46.79617188 143.02125 -47.49609375 144.0625 C-49.22102503 147.43171642 -49.7464353 150.23802188 -50 154 C-48.36030434 155.63969566 -46.5793423 155.32829446 -44.3125 155.4375 C-33.42976989 155.33843744 -23.5223871 149.35797133 -15 143 C-15.20703125 145.3046875 -15.20703125 145.3046875 -16 148 C-18.07421875 149.6953125 -18.07421875 149.6953125 -20.6875 151.125 C-21.59757813 151.62773437 -22.50765625 152.13046875 -23.4453125 152.6484375 C-24.28835938 153.09445312 -25.13140625 153.54046875 -26 154 C-27.010625 154.5775 -28.02125 155.155 -29.0625 155.75 C-36.90832852 159.08865043 -45.53716194 160.1602278 -54 159 C-56.50543337 157.57272443 -57.33880738 156.43246062 -59 154 C-59.33 153.67 -59.66 153.34 -60 153 C-60.50724102 146.60312718 -59.35816931 142.42829966 -56.5 136.75 C-56.13471191 136.00476074 -55.76942383 135.25952148 -55.39306641 134.49169922 C-52.11309568 127.9472759 -48.30274117 121.91834252 -44 116 C-43.24541504 114.94425781 -43.24541504 114.94425781 -42.47558594 113.8671875 C-35.19054524 103.68260694 -27.59781531 93.93651549 -19.33007812 84.53613281 C-17.30534706 82.19773196 -15.37462958 79.7861081 -13.4375 77.375 C-9.33114026 72.31471278 -4.97199675 67.53319731 -0.54296875 62.7578125 C1.44988239 60.59659452 3.39707785 58.41653031 5.3125 56.1875 C19.0993635 40.39005224 34.12881849 25.76215525 49 11 C43.46972585 14.97602003 38.42020459 19.23306006 33.5 23.9375 C32.18054244 25.18449899 30.86024019 26.43060486 29.5390625 27.67578125 C28.92063477 28.25924316 28.30220703 28.84270508 27.66503906 29.44384766 C25.77088546 31.21413139 23.83899437 32.93262187 21.875 34.625 C13.89739588 41.50524809 6.19888167 48.70926197 -1.1875 56.21875 C-3.00164948 58.00162104 -4.87938349 59.65999718 -6.8125 61.3125 C-11.14258064 65.03007415 -15.11008782 69.07659597 -19.09375 73.15625 C-21.20768509 75.27540192 -23.41218918 77.24239459 -25.68359375 79.19140625 C-30.88410747 83.69688083 -35.70958695 88.5638036 -40.5625 93.4375 C-41.46935547 94.34048828 -42.37621094 95.24347656 -43.31054688 96.17382812 C-47.82076563 100.69058817 -52.19232683 105.25892122 -56.34838867 110.10327148 C-59.25192 113.43771862 -62.32747434 116.61022952 -65.375 119.8125 C-70.33964287 125.06291255 -75.03805159 130.40605717 -79.5390625 136.0625 C-85.04997601 142.64060628 -91.04788717 148.82087636 -97 155 C-97.5170752 155.57169922 -98.03415039 156.14339844 -98.56689453 156.73242188 C-99.03981934 157.15072266 -99.51274414 157.56902344 -100 158 C-102.1875 157.6875 -102.1875 157.6875 -104 157 C-107.14732232 119.44195359 -69.65560627 77.64382555 -48 50 C-47.27296875 49.06929687 -46.5459375 48.13859375 -45.796875 47.1796875 C-40.36582349 40.31360206 -34.67932591 33.66068002 -29 27 C-30.92653328 27 -32.29722074 29.16657599 -33.5703125 30.4375 C-34.3025 31.16839844 -35.0346875 31.89929688 -35.7890625 32.65234375 C-36.55992187 33.42707031 -37.33078125 34.20179688 -38.125 35 C-39.24648438 36.11568359 -39.24648438 36.11568359 -40.390625 37.25390625 C-44.57489341 41.44546433 -48.59685261 45.71659343 -52.43896484 50.22460938 C-54.05616464 52.06387696 -55.7515707 53.78570267 -57.5 55.5 C-59.79326036 57.75797943 -61.96428028 60.05996504 -64.0625 62.5 C-68.15103208 67.24380471 -72.4474654 71.78718362 -76.73120117 76.35375977 C-80.15688255 80.01052964 -83.54292611 83.69470172 -86.875 87.4375 C-90.16664593 91.12536257 -93.59568045 94.62261563 -97.12109375 98.0859375 C-98.91015885 99.90847783 -100.54843215 101.79278384 -102.1875 103.75 C-106.8182806 109.12972234 -112.1320936 113.78419995 -117.390625 118.53466797 C-118.83764056 119.85217213 -120.2639652 121.19231601 -121.6875 122.53515625 C-135.96338583 135.91879922 -152.07566963 147.97962166 -170 156 C-170.67804688 156.3196875 -171.35609375 156.639375 -172.0546875 156.96875 C-179.78422095 160.11889948 -189.58543033 160.33184144 -197.66796875 158.34375 C-202.74156429 156.13535569 -204.91161763 153.04692406 -207 148 C-207.64318308 143.98010572 -207.3950982 142.5926473 -205.125 139.1875 C-203.03164086 137.03257147 -202.09043211 136.09768454 -199.125 135.83203125 C-198.42375 135.82558594 -197.7225 135.81914062 -197 135.8125 C-196.29875 135.79832031 -195.5975 135.78414062 -194.875 135.76953125 C-193 136 -193 136 -191 138 C-191.1875 141 -191.1875 141 -192 144 C-195.6441774 146.4294516 -197.71241272 146.16179575 -202 146 C-201.5875 147.11375 -201.175 148.2275 -200.75 149.375 C-200.51796875 150.00148438 -200.2859375 150.62796875 -200.046875 151.2734375 C-198.63941383 153.59469809 -197.56166666 154.10974447 -195 155 C-175.28972346 157.21001797 -159.70498935 147.60098342 -144.83496094 135.9296875 C-143.2136997 134.63109968 -141.60431021 133.31946428 -140 132 C-139.45553223 131.55317871 -138.91106445 131.10635742 -138.35009766 130.64599609 C-125.04708931 119.64744589 -112.60407739 107.66877905 -100.375 95.5 C-99.73643066 94.86610352 -99.09786133 94.23220703 -98.43994141 93.57910156 C-94.67628652 89.80256085 -91.12825577 85.89526608 -87.64306641 81.86132812 C-85.36857347 79.284696 -82.95933185 76.90146522 -80.5 74.5 C-76.69130666 70.74850206 -73.08033124 66.89410231 -69.609375 62.828125 C-67.46527938 60.39259891 -65.15874235 58.14580549 -62.8427124 55.8752594 C-61.06133012 54.06241337 -59.40303143 52.19218655 -57.75097656 50.26147461 C-54.1477879 46.11937642 -50.36203807 42.20069581 -46.484375 38.31640625 C-45.78789856 37.61660141 -45.09142212 36.91679657 -44.37384033 36.19578552 C-42.90955086 34.7264693 -41.44393665 33.25847218 -39.97705078 31.79174805 C-37.76434805 29.57686221 -35.55977574 27.35409695 -33.35546875 25.13085938 C-25.8804459 17.62626727 -18.39925883 10.47376165 -10 4 C-9.1347168 3.2685376 -8.26943359 2.5370752 -7.37792969 1.78344727 C-4.641912 -0.268566 -3.33715505 -0.38138915 0 0 Z " fill="url(#purpleBlueGradient)" transform="translate(343,185)"/>
<path d="M0 0 C0.80695313 -0.01611328 1.61390625 -0.03222656 2.4453125 -0.04882812 C8.63504788 -0.05385226 13.52240951 0.81222148 18.3359375 5.03125 C18.80257813 5.6190625 19.26921875 6.206875 19.75 6.8125 C20.47316406 7.69421875 20.47316406 7.69421875 21.2109375 8.59375 C24.39549314 13.29577846 24.14706784 18.90148218 23.375 24.3125 C17.50654632 41.02812773 4.45753668 52.83345859 -10.859375 61.046875 C-17.79424157 64.3125 -17.79424157 64.3125 -21.625 64.3125 C-21.625 63.6525 -21.625 62.9925 -21.625 62.3125 C-20.20960938 61.62027344 -20.20960938 61.62027344 -18.765625 60.9140625 C-4.3292572 53.66186622 6.16074881 45.13732465 14.3125 30.9375 C16.17370885 24.58749333 16.54770809 17.51975555 14.125 11.25 C11.71963511 7.21242322 9.78340864 5.78196955 5.375 4.3125 C-17.79293289 2.23971778 -35.64900795 13.15242806 -52.98950195 27.51171875 C-58.31357243 31.99129052 -63.51451779 36.5907708 -68.625 41.3125 C-70.07712891 42.60994141 -70.07712891 42.60994141 -71.55859375 43.93359375 C-80.78895202 52.22357074 -89.22116551 61.19486052 -97.625 70.3125 C-98.6965933 71.47007179 -99.76820623 72.62762541 -100.83984375 73.78515625 C-108.35307569 81.92271126 -115.59956531 90.27035283 -122.79833984 98.68481445 C-126.57601575 103.09793816 -130.37736664 107.48989111 -134.1875 111.875 C-141.59234136 120.40609065 -148.93514982 128.98476683 -156.0625 137.75 C-159.61433904 142.1082025 -163.22516311 146.41136967 -166.875 150.6875 C-167.37056396 151.27072021 -167.86612793 151.85394043 -168.37670898 152.45483398 C-171.31898334 155.8880648 -174.25280366 159.29110261 -177.625 162.3125 C-178.615 162.3125 -179.605 162.3125 -180.625 162.3125 C-179.18924141 159.30882631 -177.52705108 156.55149217 -175.73828125 153.74609375 C-172.56829455 148.48712521 -170.62513365 143.21904511 -168.8125 137.375 C-168.12635053 135.2525885 -167.44015068 133.13019329 -166.75390625 131.0078125 C-166.04340782 128.77631626 -165.33378458 126.54454119 -164.625 124.3125 C-159.1669108 107.1868462 -153.19284887 90.62473554 -145.625 74.3125 C-145.16802734 73.32169434 -144.71105469 72.33088867 -144.24023438 71.31005859 C-138.84855966 59.67097656 -133.19719542 48.33059233 -126.625 37.3125 C-126.295 36.6525 -125.965 35.9925 -125.625 35.3125 C-127.68850075 37.81167538 -129.75072786 40.31189838 -131.8125 42.8125 C-132.44599365 43.58062012 -133.0794873 44.34874023 -133.73217773 45.14013672 C-137.37715078 49.56523644 -141.00031259 54.00654077 -144.59912109 58.46923828 C-150.4063231 65.66531307 -156.36091408 72.70846822 -162.44921875 79.66796875 C-164.51398436 82.02886605 -166.55857595 84.40438861 -168.58203125 86.80078125 C-175.16063 94.58589677 -181.99901318 102.07282354 -189.0078125 109.47265625 C-191.77291646 112.3944543 -194.48882637 115.35472254 -197.18115234 118.34350586 C-201.08445005 122.67107506 -205.01638331 126.7472108 -209.48828125 130.484375 C-211.64059456 132.32584233 -213.69086687 134.256599 -215.74487305 136.20629883 C-225.23116738 145.14788137 -235.57211008 153.1377351 -247.625 158.3125 C-248.38039062 158.67601562 -249.13578125 159.03953125 -249.9140625 159.4140625 C-256.70455105 161.6645126 -266.87307836 161.6608689 -273.375 158.625 C-277.12376715 155.95760799 -279.57131145 153.4198771 -281.625 149.3125 C-282.05523798 145.44035818 -281.94169086 143.78753629 -279.75 140.5 C-276.95808569 137.62597056 -276.24335428 137.34622842 -272.1875 137.125 C-268.625 137.3125 -268.625 137.3125 -265.625 139.3125 C-265.1875 141.75 -265.1875 141.75 -265.625 144.3125 C-267.1875 146.125 -267.1875 146.125 -269.625 147.3125 C-273.375 147.5 -273.375 147.5 -276.625 147.3125 C-274.66066605 151.96486988 -273.19512266 154.13594717 -268.625 156.3125 C-253.60390493 158.56285132 -242.33146844 151.92019739 -230.625 143.3125 C-215.77334697 132.06519552 -201.57208875 118.5877939 -189.4609375 104.4296875 C-187.2729383 101.90650545 -185.01206887 99.45695481 -182.75 97 C-179.46067762 93.39858829 -176.30482364 89.73942725 -173.25 85.9375 C-169.86111791 81.73432823 -166.31236859 77.75071393 -162.625 73.8125 C-158.18039822 69.06033987 -153.97119817 64.1889152 -149.89453125 59.11328125 C-147.39652949 56.0305493 -144.82831518 53.01541735 -142.25 50 C-137.92960626 44.9310905 -133.7838935 39.74636951 -129.69335938 34.4909668 C-125.13693416 28.65079983 -120.39556824 22.97856739 -115.625 17.3125 C-115.18639648 16.75949219 -114.74779297 16.20648438 -114.29589844 15.63671875 C-113.11444115 14.16054535 -111.87361033 12.73232445 -110.625 11.3125 C-109.965 11.3125 -109.305 11.3125 -108.625 11.3125 C-109.72516547 15.11307163 -111.19422728 18.46358617 -113.04296875 21.94140625 C-115.5084127 26.83227792 -116.97111405 31.57070958 -118.25 36.875 C-124.0362237 59.23845028 -131.21203461 81.65657681 -141.625 102.3125 C-142.29063965 103.63411133 -142.29063965 103.63411133 -142.96972656 104.98242188 C-148.19684495 115.27771378 -153.63503855 125.43826321 -159.625 135.3125 C-155.86223002 131.64550962 -152.39636002 127.81898121 -149 123.8125 C-148.48219971 123.20519043 -147.96439941 122.59788086 -147.4309082 121.97216797 C-143.41260995 117.25474321 -139.41488601 112.51983611 -135.41723633 107.78491211 C-132.49266599 104.32493919 -129.53387748 100.89962131 -126.53515625 97.50390625 C-124.54173609 95.21697637 -122.58521632 92.90031176 -120.62670898 90.58349609 C-113.80867005 82.54284345 -106.65268769 74.86108106 -99.40625 67.20703125 C-97.2698115 64.93472275 -95.1660854 62.63419062 -93.06542969 60.32885742 C-83.49321579 49.83673755 -73.63244611 39.31501843 -62.625 30.3125 C-62.12097656 29.88936523 -61.61695313 29.46623047 -61.09765625 29.03027344 C-43.4823273 14.26095852 -23.85861642 -0.0962041 0 0 Z " fill="url(#purpleBlueGradient)" transform="translate(377.625,95.6875)"/>
<path d="M0 0 C1.36898437 0.00406357 1.36898437 0.00406357 2.765625 0.00820923 C17.6181175 0.07481597 31.86644116 1.02011419 46.375 4.4375 C47.18146973 4.62473633 47.98793945 4.81197266 48.81884766 5.00488281 C54.07809702 6.26657968 59.22582317 7.7881186 64.375 9.4375 C65.13490234 9.67275391 65.89480469 9.90800781 66.67773438 10.15039062 C98.72410721 20.16323094 127.09499566 37.35159423 151.375 60.4375 C152.17139893 61.19305176 152.17139893 61.19305176 152.98388672 61.96386719 C180.64992775 88.3890336 200.22009256 121.93830093 211.375 158.4375 C211.65988281 159.35273438 211.94476563 160.26796875 212.23828125 161.2109375 C214.65867821 169.47752406 216.05517679 177.9399563 217.375 186.4375 C217.58382813 187.72398437 217.79265625 189.01046875 218.0078125 190.3359375 C221.56131011 214.76510521 220.33859404 240.34813076 215.375 264.4375 C215.20371582 265.30938965 215.03243164 266.1812793 214.85595703 267.07958984 C210.63327654 288.06318846 202.30257326 310.54614011 190.375 328.4375 C189.385 328.1075 188.395 327.7775 187.375 327.4375 C188.5428082 324.28505601 189.92298537 321.29873801 191.44140625 318.3046875 C211.23237035 278.96659869 220.65882251 234.23263535 213.375 190.4375 C213.18562561 188.99276749 213.0009644 187.54741159 212.8203125 186.1015625 C207.31643039 144.13223493 187.42216353 104.04076157 158.375 73.4375 C157.24383588 72.10939213 156.11841003 70.77636586 155 69.4375 C141.71884917 54.27665033 124.66759092 42.55211664 107.375 32.4375 C106.76865723 32.08204102 106.16231445 31.72658203 105.53759766 31.36035156 C80.94197312 17.14361336 53.39004305 9.19613604 25.375 5.4375 C24.65908691 5.3336499 23.94317383 5.2297998 23.20556641 5.12280273 C-12.89735165 0.38392681 -51.47216998 6.95384471 -84.625 21.4375 C-85.42405762 21.78006836 -86.22311523 22.12263672 -87.04638672 22.47558594 C-139.5455396 45.22203901 -178.47900631 88.64465976 -200.2578125 140.97265625 C-205.45296489 154.13865674 -208.90018307 167.56636205 -211.625 181.4375 C-211.81553955 182.36868652 -212.0060791 183.29987305 -212.20239258 184.25927734 C-214.09913018 194.72642759 -213.98015639 205.21255489 -213.9375 215.8125 C-213.93501251 216.79337585 -213.93252502 217.77425171 -213.92996216 218.78485107 C-213.775385 258.12293005 -204.18370298 293.65289191 -185.625 328.4375 C-186.615 328.7675 -187.605 329.0975 -188.625 329.4375 C-217.32159199 285.19692067 -225.55736647 226.25692685 -214.92480469 175.06640625 C-210.20563819 153.95778225 -202.76334369 134.49316354 -192.625 115.4375 C-192.28388184 114.78330078 -191.94276367 114.12910156 -191.59130859 113.45507812 C-186.27947946 103.31138951 -180.09248429 94.17919426 -173.00488281 85.19189453 C-171.81694576 83.68154144 -170.6522449 82.15296442 -169.4921875 80.62109375 C-158.52658048 66.53781415 -145.2029523 53.73054758 -130.625 43.4375 C-129.85317383 42.8914209 -129.08134766 42.3453418 -128.28613281 41.78271484 C-101.19823905 22.80863398 -72.26142546 9.62805265 -39.625 3.4375 C-38.94953125 3.30759674 -38.2740625 3.17769348 -37.578125 3.04385376 C-25.00615021 0.67809795 -12.77806861 -0.08956454 0 0 Z " fill="url(#purpleBlueGradient)" transform="translate(252.625,15.5625)"/>
<path d="M0 0 C1.6720752 0.77005371 1.6720752 0.77005371 3.37792969 1.55566406 C4.37469727 2.02133789 5.37146484 2.48701172 6.3984375 2.96679688 C11.74586249 5.15429433 17.45488532 6.05016749 23.17480469 5.10253906 C26.46306191 3.71694665 29.54743033 2.13833181 32.67089844 0.41503906 C35.17480469 -0.89746094 35.17480469 -0.89746094 37.17480469 -0.89746094 C34.66134382 5.05148413 28.99420182 7.540599 23.23730469 9.91503906 C7.00579057 14.74817493 -8.33447716 9.23512858 -22.57519531 1.54003906 C-23.29094727 1.14695557 -24.00669922 0.75387207 -24.74414062 0.34887695 C-38.69400378 -7.2887215 -52.32082053 -10.32189307 -67.93847656 -5.93261719 C-76.96301395 -2.69648402 -83.98561625 2.67124414 -88.91894531 10.93457031 C-92.14959842 18.0390158 -92.09592287 27.2896591 -89.57519531 34.60253906 C-85.56850957 42.61591056 -80.17800894 46.18537482 -71.82519531 49.10253906 C-62.0815725 50.52229139 -52.5184997 48.9927363 -44.45019531 43.22753906 C-39.86413926 39.48287636 -36.71751984 35.76319951 -34.82519531 30.10253906 C-34.58548442 27.20602078 -34.58548442 27.20602078 -34.70019531 24.29003906 C-34.71824219 23.31421875 -34.73628906 22.33839844 -34.75488281 21.33300781 C-34.77808594 20.59695312 -34.80128906 19.86089844 -34.82519531 19.10253906 C-36.14519531 19.10253906 -37.46519531 19.10253906 -38.82519531 19.10253906 C-43.49186198 18.4358724 -43.49186198 18.4358724 -45.82519531 16.10253906 C-45.49548052 12.80539114 -45.20251141 11.47985516 -42.82519531 9.10253906 C-38.61384335 9.18052706 -36.53666289 9.39107149 -33.51269531 12.41503906 C-30.07105708 17.89616662 -29.03549139 21.63304154 -29.82519531 28.10253906 C-31.70902574 35.81670543 -35.54572619 41.28863598 -41.82519531 46.10253906 C-52.18453131 52.27209917 -61.92815346 53.46220099 -73.82519531 52.10253906 C-81.39434277 49.87163244 -87.63579202 45.87344086 -91.82519531 39.10253906 C-96.12769205 31.12926139 -97.26035121 22.25962885 -94.70019531 13.54003906 C-90.79771501 3.07263863 -82.46422189 -4.20516445 -72.51269531 -8.79589844 C-47.04987627 -19.23269345 -23.43572722 -10.7992548 0 0 Z " fill="url(#purpleBlueGradient)" transform="translate(214.8251953125,115.8974609375)"/>
<path d="M0 0 C0.80695313 -0.01611328 1.61390625 -0.03222656 2.4453125 -0.04882812 C8.63504788 -0.05385226 13.52240951 0.81222148 18.3359375 5.03125 C19.03589844 5.91296875 19.03589844 5.91296875 19.75 6.8125 C20.47316406 7.69421875 20.47316406 7.69421875 21.2109375 8.59375 C24.39549314 13.29577846 24.14706784 18.90148218 23.375 24.3125 C17.50654632 41.02812773 4.45753668 52.83345859 -10.859375 61.046875 C-17.79424157 64.3125 -17.79424157 64.3125 -21.625 64.3125 C-21.625 63.6525 -21.625 62.9925 -21.625 62.3125 C-20.68140625 61.85101563 -19.7378125 61.38953125 -18.765625 60.9140625 C-4.3292572 53.66186622 6.16074881 45.13732465 14.3125 30.9375 C16.17370885 24.58749333 16.54770809 17.51975555 14.125 11.25 C11.71963511 7.21242322 9.78340864 5.78196955 5.375 4.3125 C-17.79293289 2.23971778 -35.64900795 13.15242806 -52.98950195 27.51171875 C-58.31357243 31.99129052 -63.51451779 36.5907708 -68.625 41.3125 C-69.59308594 42.17746094 -70.56117188 43.04242188 -71.55859375 43.93359375 C-80.78895202 52.22357074 -89.22116551 61.19486052 -97.625 70.3125 C-98.6965933 71.47007179 -99.76820623 72.62762541 -100.83984375 73.78515625 C-108.35234853 81.92192368 -115.59890444 90.26822413 -122.79614258 98.68261719 C-127.13383541 103.75074879 -131.50514636 108.7890756 -135.88891602 113.81738281 C-138.47809425 116.79679698 -141.03636697 119.79326901 -143.52734375 122.85546875 C-143.97835449 123.40831543 -144.42936523 123.96116211 -144.89404297 124.53076172 C-146.10377856 126.02180993 -147.30419869 127.52040258 -148.50390625 129.01953125 C-150.51901029 131.19792181 -151.90900663 132.22725106 -154.625 133.3125 C-155.285 133.6425 -155.945 133.9725 -156.625 134.3125 C-154.93581375 130.22446937 -152.07031324 127.15605194 -149.1875 123.875 C-148.10113246 122.62407125 -147.01520498 121.37276022 -145.9296875 120.12109375 C-145.37893555 119.48800293 -144.82818359 118.85491211 -144.26074219 118.20263672 C-141.75152784 115.30318336 -139.28215213 112.37064427 -136.8125 109.4375 C-133.42564152 105.42449961 -130.01112474 101.44005024 -126.53515625 97.50390625 C-124.54173609 95.21697637 -122.58521632 92.90031176 -120.62670898 90.58349609 C-113.80867005 82.54284345 -106.65268769 74.86108106 -99.40625 67.20703125 C-97.2698115 64.93472275 -95.1660854 62.63419062 -93.06542969 60.32885742 C-83.49321579 49.83673755 -73.63244611 39.31501843 -62.625 30.3125 C-62.12097656 29.88936523 -61.61695313 29.46623047 -61.09765625 29.03027344 C-43.4823273 14.26095852 -23.85861642 -0.0962041 0 0 Z " fill="url(#purpleBlueGradient)" transform="translate(377.625,95.6875)"/>
<path d="M0 0 C0.99 0.495 0.99 0.495 2 1 C1.40312566 4.34249629 0.26396123 6.46436342 -2 9 C-2.66 9 -3.32 9 -4 9 C-4 9.66 -4 10.32 -4 11 C-5.65344665 12.02171031 -7.32255542 13.01818665 -9 14 C-10.36185673 15.19784711 -11.6825619 16.44390461 -12.9609375 17.73046875 C-13.68023437 18.45169922 -14.39953125 19.17292969 -15.140625 19.91601562 C-15.87796875 20.66560547 -16.6153125 21.41519531 -17.375 22.1875 C-18.46941406 23.28288086 -18.46941406 23.28288086 -19.5859375 24.40039062 C-23.69609261 28.54357377 -27.64105648 32.77899019 -31.43017578 37.21801758 C-33.05133487 39.05827266 -34.74928524 40.78322479 -36.5 42.5 C-38.79326036 44.75797943 -40.96428028 47.05996504 -43.0625 49.5 C-47.15103208 54.24380471 -51.4474654 58.78718362 -55.73120117 63.35375977 C-59.15688255 67.01052964 -62.54292611 70.69470172 -65.875 74.4375 C-69.16664593 78.12536257 -72.59568045 81.62261563 -76.12109375 85.0859375 C-77.91015885 86.90847783 -79.54843215 88.79278384 -81.1875 90.75 C-85.8182806 96.12972234 -91.1320936 100.78419995 -96.390625 105.53466797 C-97.83764056 106.85217213 -99.2639652 108.19231601 -100.6875 109.53515625 C-114.96338583 122.91879922 -131.07566963 134.97962166 -149 143 C-149.67804688 143.3196875 -150.35609375 143.639375 -151.0546875 143.96875 C-158.78422095 147.11889948 -168.58543033 147.33184144 -176.66796875 145.34375 C-181.74156429 143.13535569 -183.91161763 140.04692406 -186 135 C-186.64318308 130.98010572 -186.3950982 129.5926473 -184.125 126.1875 C-182.03164086 124.03257147 -181.09043211 123.09768454 -178.125 122.83203125 C-177.42375 122.82558594 -176.7225 122.81914062 -176 122.8125 C-175.29875 122.79832031 -174.5975 122.78414063 -173.875 122.76953125 C-172 123 -172 123 -170 125 C-170.1875 128 -170.1875 128 -171 131 C-174.6441774 133.4294516 -176.71241272 133.16179575 -181 133 C-180.5875 134.11375 -180.175 135.2275 -179.75 136.375 C-179.51796875 137.00148438 -179.2859375 137.62796875 -179.046875 138.2734375 C-177.63941383 140.59469809 -176.56166666 141.10974447 -174 142 C-154.28972346 144.21001797 -138.70498935 134.60098342 -123.83496094 122.9296875 C-122.2136997 121.63109968 -120.60431021 120.31946428 -119 119 C-118.18329834 118.32976807 -118.18329834 118.32976807 -117.35009766 117.64599609 C-104.04708931 106.64744589 -91.60407739 94.66877905 -79.375 82.5 C-78.73643066 81.86610352 -78.09786133 81.23220703 -77.43994141 80.57910156 C-73.67628652 76.80256085 -70.12825577 72.89526608 -66.64306641 68.86132812 C-64.36857347 66.284696 -61.95933185 63.90146522 -59.5 61.5 C-55.69130666 57.74850206 -52.08033124 53.89410231 -48.609375 49.828125 C-46.46484684 47.39210757 -44.15787145 45.14485454 -41.84120178 42.87402344 C-40.06726623 41.06846533 -38.41855465 39.20559434 -36.77514648 37.28125 C-33.05537693 33.00491088 -29.11915969 28.99123371 -25.09765625 25 C-24.3750914 24.2788501 -23.65252655 23.5577002 -22.9080658 22.81469727 C-20.62857396 20.54074585 -18.3456076 18.27032046 -16.0625 16 C-14.50432494 14.44684765 -12.94638007 12.89346433 -11.38867188 11.33984375 C-7.59510241 7.55722414 -3.79868385 3.7774831 0 0 Z " fill="url(#purpleBlueGradient)" transform="translate(322,198)"/>
<path d="M0 0 C0.99 0.33 1.98 0.66 3 1 C1.74016019 2.25983981 0.46822632 3.50780963 -0.8203125 4.73828125 C-3.38583773 7.4003585 -5.62510786 10.26131334 -7.875 13.1875 C-17.5036175 25.56268968 -27.54305203 37.58444471 -37.859375 49.390625 C-39.9102556 51.73917339 -41.94150251 54.1021198 -43.953125 56.484375 C-50.53359993 64.27029878 -57.37274419 71.75898375 -64.3828125 79.16015625 C-67.14791646 82.0819543 -69.86382637 85.04222254 -72.55615234 88.03100586 C-76.45945005 92.35857506 -80.39138331 96.4347108 -84.86328125 100.171875 C-87.01559456 102.01334233 -89.06586687 103.944099 -91.11987305 105.89379883 C-100.60616738 114.83538137 -110.94711008 122.8252351 -123 128 C-123.75539062 128.36351562 -124.51078125 128.72703125 -125.2890625 129.1015625 C-132.07955105 131.3520126 -142.24807836 131.3483689 -148.75 128.3125 C-152.49876715 125.64510799 -154.94631145 123.1073771 -157 119 C-157.43023798 115.12785818 -157.31669086 113.47503629 -155.125 110.1875 C-152.33308569 107.31347056 -151.61835428 107.03372842 -147.5625 106.8125 C-144 107 -144 107 -141 109 C-140.5625 111.4375 -140.5625 111.4375 -141 114 C-142.5625 115.8125 -142.5625 115.8125 -145 117 C-148.75 117.1875 -148.75 117.1875 -152 117 C-150.03566605 121.65236988 -148.57012266 123.82344717 -144 126 C-128.97890493 128.25035132 -117.70646844 121.60769739 -106 113 C-91.14834697 101.75269552 -76.94708875 88.2752939 -64.8359375 74.1171875 C-62.6479383 71.59400545 -60.38706887 69.14445481 -58.125 66.6875 C-54.83567762 63.08608829 -51.67982364 59.42692725 -48.625 55.625 C-45.23611791 51.42182823 -41.68736859 47.43821393 -38 43.5 C-33.55863561 38.75130128 -29.35283948 33.88291784 -25.27734375 28.8125 C-22.27928887 25.10992793 -19.19223171 21.48684154 -16.10327148 17.86010742 C-12.27547728 13.35463637 -8.55842728 8.76912837 -4.875 4.14453125 C-3 2 -3 2 0 0 Z " fill="url(#purpleBlueGradient)" transform="translate(253,126)"/>
<path d="M0 0 C-0.44492198 7.00752122 -1.71238508 13.53815508 -3.45214844 20.31811523 C-6.88444455 34.00970788 -7.36899006 47.33744206 -7.3125 61.375 C-7.31001251 62.35587585 -7.30752502 63.33675171 -7.30496216 64.34735107 C-7.150385 103.68543005 2.44129702 139.21539191 21 174 C20.01 174.33 19.02 174.66 18 175 C-10.57843554 130.94157855 -19.15252274 71.72607997 -8.30126953 20.71533203 C-4.82107861 5.55908948 -4.82107861 5.55908948 -3 1 C-1 0 -1 0 0 0 Z " fill="url(#purpleBlueGradient)" transform="translate(46,170)"/>
<path d="M0 0 C1.65 0 3.3 0 5 0 C6.77967263 8.04030671 8.43630637 15.71017896 8 24 C6.35 24.33 4.7 24.66 3 25 C2.34 20.05 1.68 15.1 1 10 C-1.31954564 13.09272752 -2.71720383 15.30240897 -4.1875 18.75 C-4.53167969 19.54921875 -4.87585938 20.3484375 -5.23046875 21.171875 C-5.48441406 21.77515625 -5.73835938 22.3784375 -6 23 C-11.35230135 20.80603864 -14.31070285 16.30418001 -18 12 C-17.67 17.61 -17.34 23.22 -17 29 C-17.99 29 -18.98 29 -20 29 C-20.50610903 25.77176021 -21.00379907 22.54227635 -21.5 19.3125 C-21.71462891 17.94448242 -21.71462891 17.94448242 -21.93359375 16.54882812 C-22.06894531 15.66259766 -22.20429688 14.77636719 -22.34375 13.86328125 C-22.46943359 13.05157471 -22.59511719 12.23986816 -22.72460938 11.40356445 C-23.00977723 8.91466595 -23.04674739 6.50293311 -23 4 C-19.85249399 3.67156459 -18.45973238 3.64728167 -15.90234375 5.609375 C-15.25394531 6.31578125 -14.60554688 7.0221875 -13.9375 7.75 C-13.28652344 8.44609375 -12.63554687 9.1421875 -11.96484375 9.859375 C-11.31644531 10.56578125 -10.66804688 11.2721875 -10 12 C-8.67245111 13.33909279 -7.34077779 14.67415292 -6 16 C-5.88785156 15.29488281 -5.77570313 14.58976562 -5.66015625 13.86328125 C-4.93685092 10.72610488 -3.80542309 8.09872094 -2.4375 5.1875 C-1.98246094 4.21167969 -1.52742188 3.23585938 -1.05859375 2.23046875 C-0.70925781 1.49441406 -0.35992187 0.75835937 0 0 Z " fill="url(#purpleBlueGradient)" transform="translate(296,438)"/>
<path d="M0 0 C2.05145046 1.57803881 2.28911682 2.73087612 2.625 5.25 C1.903125 4.899375 1.18125 4.54875 0.4375 4.1875 C-2.6872705 3.14590983 -4.25661996 3.35903428 -7.375 4.25 C-7.06000867 7.81990169 -6.11454766 9.79079548 -3.8125 12.4375 C-1.375 15.25 -1.375 15.25 -1.375 17.25 C-0.715 17.25 -0.055 17.25 0.625 17.25 C0.955 15.93 1.285 14.61 1.625 13.25 C2.285 13.25 2.945 13.25 3.625 13.25 C3.3775 14.28125 3.13 15.3125 2.875 16.375 C2.57193476 21.07251115 3.73341007 22.65741858 6.625 26.25 C4.645 26.25 2.665 26.25 0.625 26.25 C0.295 25.26 -0.035 24.27 -0.375 23.25 C-0.94347656 23.57097656 -1.51195312 23.89195312 -2.09765625 24.22265625 C-5.82732321 25.90516467 -9.36965663 25.93297152 -13.375 25.25 C-16.5 23.1875 -16.5 23.1875 -18.375 20.25 C-18.5 16.6875 -18.5 16.6875 -17.375 13.25 C-14.8125 10.8125 -14.8125 10.8125 -12.375 9.25 C-12.705 8.92 -13.035 8.59 -13.375 8.25 C-13.6875 5.375 -13.6875 5.375 -13.375 2.25 C-9.88807392 -1.93431129 -4.88436895 -1.5424323 0 0 Z " fill="url(#purpleBlueGradient)" transform="translate(240.375,441.75)"/>
<path d="M0 0 C4.65205762 2.09368056 7.69241146 5.36183429 11.25 8.9375 C11.8996875 9.57107422 12.549375 10.20464844 13.21875 10.85742188 C13.83234375 11.47037109 14.4459375 12.08332031 15.078125 12.71484375 C15.63918945 13.27292725 16.20025391 13.83101074 16.77832031 14.40600586 C18 16 18 16 18 19 C11.20918161 22.39540919 0.99947675 19.30222823 -6 18 C-2.37 21.63 1.26 25.26 5 29 C4.67 29.99 4.34 30.98 4 32 C0.84795019 30.60652624 -1.26171773 28.97514921 -3.671875 26.5234375 C-4.33574219 25.853125 -4.99960937 25.1828125 -5.68359375 24.4921875 C-6.36550781 23.79351562 -7.04742187 23.09484375 -7.75 22.375 C-8.44738281 21.66859375 -9.14476562 20.9621875 -9.86328125 20.234375 C-11.58012488 18.49401297 -13.29211832 16.74915019 -15 15 C-14.01 13.68 -13.02 12.36 -12 11 C-4.74 11.99 2.52 12.98 10 14 C6.37 10.37 2.74 6.74 -1 3 C-0.67 2.01 -0.34 1.02 0 0 Z " fill="url(#purpleBlueGradient)" transform="translate(405,377)"/>
<path d="M0 0 C2.11328125 2.125 2.11328125 2.125 4.3125 5 C7.66456081 9.3010714 11.10082936 13.42290005 14.78515625 17.44140625 C16 19 16 19 16 21 C13.6875 21.6875 13.6875 21.6875 11 22 C10.54625 21.505 10.0925 21.01 9.625 20.5 C9.08875 20.005 8.5525 19.51 8 19 C4.56206661 19.18129815 4.56206661 19.18129815 1 20 C0.030625 20.185625 -0.93875 20.37125 -1.9375 20.5625 C-2.618125 20.706875 -3.29875 20.85125 -4 21 C-4 22.98 -4 24.96 -4 27 C-4.99 27.33 -5.98 27.66 -7 28 C-7.11298973 21.25827945 -7.00672504 14.54334173 -6.625 7.8125 C-6.55539062 6.54019531 -6.48578125 5.26789063 -6.4140625 3.95703125 C-6.27742188 2.98121094 -6.14078125 2.00539063 -6 1 C-4 0 -4 0 0 0 Z " fill="url(#purpleBlueGradient)" transform="translate(324,431)"/>
<path d="M0 0 C2.53968641 1.18648088 4.75784232 2.49046531 7.07739258 4.05908203 C8.27138672 4.86152344 8.27138672 4.86152344 9.48950195 5.68017578 C10.71443359 6.51355469 10.71443359 6.51355469 11.96411133 7.36376953 C12.80006836 7.92708984 13.63602539 8.49041016 14.49731445 9.07080078 C16.55160185 10.45597742 18.6028817 11.84539172 20.65161133 13.23876953 C19.66161133 14.72376953 19.66161133 14.72376953 18.65161133 16.23876953 C18.05993164 16.12017578 17.46825195 16.00158203 16.85864258 15.87939453 C11.51447206 14.92704596 11.51447206 14.92704596 6.71411133 17.17626953 C6.03348633 17.85689453 5.35286133 18.53751953 4.65161133 19.23876953 C3.99161133 19.23876953 3.33161133 19.23876953 2.65161133 19.23876953 C2.98161133 21.54876953 3.31161133 23.85876953 3.65161133 26.23876953 C2.66161133 26.89876953 1.67161133 27.55876953 0.65161133 28.23876953 C-0.38242667 24.13781315 -1.39834287 20.03258057 -2.41088867 15.92626953 C-2.70543945 14.75902344 -2.99999023 13.59177734 -3.3034668 12.38916016 C-3.57739258 11.27089844 -3.85131836 10.15263672 -4.13354492 9.00048828 C-4.39014893 7.96883545 -4.64675293 6.93718262 -4.91113281 5.87426758 C-5.34838867 3.23876953 -5.34838867 3.23876953 -4.34838867 0.23876953 C-2.34838867 -0.76123047 -2.34838867 -0.76123047 0 0 Z " fill="url(#purpleBlueGradient)" transform="translate(377.348388671875,403.76123046875)"/>
<path d="M0 0 C1.32 0.66 2.64 1.32 4 2 C2.7688372 9.48836671 1.0850246 16.70241391 -1 24 C3.29 20.7 7.58 17.4 12 14 C12.66 14.33 13.32 14.66 14 15 C12.45925194 19.28427364 9.21451142 21.45149377 5.6875 24.0625 C5.11837891 24.49626953 4.54925781 24.93003906 3.96289062 25.37695312 C0.75063806 27.79997257 -2.50205973 29.99836439 -6 32 C-6.66 31.34 -7.32 30.68 -8 30 C-7.62946654 22.46581965 -5.77103269 15.31513503 -4 8 C-7.96 10.97 -11.92 13.94 -16 17 C-16.66 16.67 -17.32 16.34 -18 16 C-16.6167621 12.74170629 -15.15201519 11.06337617 -12.3046875 8.984375 C-11.58925781 8.45585937 -10.87382813 7.92734375 -10.13671875 7.3828125 C-9.01716797 6.57457031 -9.01716797 6.57457031 -7.875 5.75 C-7.12089844 5.19570313 -6.36679688 4.64140625 -5.58984375 4.0703125 C-3.73177256 2.70615897 -1.86851184 1.34979822 0 0 Z " fill="url(#purpleBlueGradient)" transform="translate(81,353)"/>
<path d="M0 0 C1.17771597 4.13994893 0.8069687 6.36997743 -0.87109375 10.30078125 C-1.28037109 11.27724609 -1.68964844 12.25371094 -2.11132812 13.25976562 C-2.54896484 14.26716797 -2.98660156 15.27457031 -3.4375 16.3125 C-3.87126953 17.33923828 -4.30503906 18.36597656 -4.75195312 19.42382812 C-5.82304464 21.95442896 -6.90599053 24.47924231 -8 27 C-9.32 26.34 -10.64 25.68 -12 25 C-11.855625 23.80375 -11.71125 22.6075 -11.5625 21.375 C-11.55762135 18.63807977 -11.7514992 17.35078229 -13.34765625 15.09765625 C-15.16467755 13.40043855 -16.77925028 12.12145645 -19 11 C-22.34595936 10.95614304 -22.34595936 10.95614304 -25 12 C-25 11.01 -25 10.02 -25 9 C-21.7778676 7.48454537 -18.54626873 5.99044289 -15.3125 4.5 C-14.40048828 4.07074219 -13.48847656 3.64148438 -12.54882812 3.19921875 C-11.66259766 2.79316406 -10.77636719 2.38710938 -9.86328125 1.96875 C-9.05157471 1.59169922 -8.23986816 1.21464844 -7.40356445 0.82617188 C-4.79247322 -0.07133272 -2.74124384 -0.15359499 0 0 Z " fill="url(#purpleBlueGradient)" transform="translate(110,384)"/>
<path d="M0 0 C1.65 0.33 3.3 0.66 5 1 C5.99 8.26 6.98 15.52 8 23 C10.64 18.38 13.28 13.76 16 9 C16.99 9.33 17.98 9.66 19 10 C17.50787224 15.43683334 14.8990817 19.69063815 11.875 24.375 C11.40707031 25.11105469 10.93914062 25.84710938 10.45703125 26.60546875 C9.31041087 28.40730078 8.15598924 30.20416431 7 32 C5.06542969 31.31298828 5.06542969 31.31298828 3 30 C2.27050781 27.75341797 2.27050781 27.75341797 1.953125 24.9921875 C1.76943359 23.51298828 1.76943359 23.51298828 1.58203125 22.00390625 C1.47246094 20.97136719 1.36289063 19.93882812 1.25 18.875 C1.12496094 17.83472656 0.99992188 16.79445313 0.87109375 15.72265625 C0.56430413 13.1503433 0.28002313 10.57536421 0 8 C-4.455 15.425 -4.455 15.425 -9 23 C-9.66 22.67 -10.32 22.34 -11 22 C-10.49844814 16.67501327 -7.65564273 12.64794605 -4.9375 8.1875 C-4.46505859 7.39923828 -3.99261719 6.61097656 -3.50585938 5.79882812 C-2.34368685 3.86187392 -1.17495583 1.92921705 0 0 Z " fill="url(#purpleBlueGradient)" transform="translate(138,409)"/>
<path d="M0 0 C3.62343383 3.78813537 4.04524538 8.00589889 5 13 C10.28 13 15.56 13 21 13 C20.34 14.65 19.68 16.3 19 18 C17.39318359 18.07347656 17.39318359 18.07347656 15.75390625 18.1484375 C14.35674361 18.22345294 12.9596095 18.2990013 11.5625 18.375 C10.85544922 18.4059375 10.14839844 18.436875 9.41992188 18.46875 C7.60760812 18.57280629 5.80182012 18.77919892 4 19 C3.67 19.66 3.34 20.32 3 21 C5.64 22.98 8.28 24.96 11 27 C10.34 28.32 9.68 29.64 9 31 C4.46551499 29.50548809 1.05874042 26.94362819 -2.625 24 C-7.21947196 20.37506013 -7.21947196 20.37506013 -12 17 C-11.34 15.68 -10.68 14.36 -10 13 C-7.41022723 13.46245942 -6.03496141 13.97245465 -3.9375 15.625 C-2.9784375 16.305625 -2.9784375 16.305625 -2 17 C-1.01 16.67 -0.02 16.34 1 16 C0.855625 14.824375 0.71125 13.64875 0.5625 12.4375 C0.47355469 11.71304687 0.38460938 10.98859375 0.29296875 10.2421875 C0.0231587 8.17724125 -0.29853181 6.11924962 -0.625 4.0625 C-0.74875 3.051875 -0.8725 2.04125 -1 1 C-0.67 0.67 -0.34 0.34 0 0 Z " fill="url(#purpleBlueGradient)" transform="translate(425,352)"/>
<path d="M0 0 C4.21135196 0.077988 6.28853243 0.28853243 9.3125 3.3125 C12.75413823 8.79362756 13.78970392 12.53050248 13 19 C10.86737173 27.73297778 6.07855239 33.89257525 -1.56640625 38.5703125 C-5.69100742 40.72174381 -9.39677738 42.22325728 -14 43 C-14 42.34 -14 41.68 -14 41 C-14.66 40.67 -15.32 40.34 -16 40 C-15.3709375 39.85304687 -14.741875 39.70609375 -14.09375 39.5546875 C-5.58142837 37.324049 1.03093701 33.45359449 6 26 C7.79542263 22.24243692 8.22499286 19.33720349 8.125 15.1875 C8.10695312 14.21167969 8.08890625 13.23585937 8.0703125 12.23046875 C8.04710937 11.49441406 8.02390625 10.75835937 8 10 C6.68 10 5.36 10 4 10 C-0.66666667 9.33333333 -0.66666667 9.33333333 -3 7 C-2.67028521 3.70285207 -2.3773161 2.3773161 0 0 Z " fill="url(#purpleBlueGradient)" transform="translate(172,125)"/>
<path d="M0 0 C3.70231632 1.85115816 5.51767858 3.03535716 7.375 6.75 C7.58125 7.4925 7.7875 8.235 8 9 C7.01 9 6.02 9 5 9 C4.195625 8.175 3.39125 7.35 2.5625 6.5 C0.11947885 3.53445077 0.11947885 3.53445077 -4 4 C-4.29821279 7.07265678 -4.36460263 8.51727356 -2.46875 11.02734375 C-1.8190625 11.65769531 -1.169375 12.28804688 -0.5 12.9375 C2.9272699 16.61453046 2.9272699 16.61453046 3.625 20.3125 C2.92415596 23.32612936 2.4062344 24.13796939 0 26 C-4.0326866 26.83291289 -8.2041587 26.87277887 -11.953125 25.05078125 C-14.56930646 23.03784552 -15.89554122 21.33576035 -16.875 18.1875 C-16.91625 17.465625 -16.9575 16.74375 -17 16 C-16.34 15.67 -15.68 15.34 -15 15 C-14.484375 15.969375 -13.96875 16.93875 -13.4375 17.9375 C-11.23561704 21.35391691 -11.23561704 21.35391691 -7.25 21.875 C-6.1775 21.91625 -5.105 21.9575 -4 22 C-3.13136663 20.260695 -3.13136663 20.260695 -3 18 C-4.64934313 15.48993146 -4.64934313 15.48993146 -6.9375 13.0625 C-10.9254677 8.63674511 -10.9254677 8.63674511 -11.31640625 5.296875 C-11 3 -11 3 -10 1.1875 C-6.78002439 -0.72436052 -3.58183379 -0.60938571 0 0 Z " fill="url(#purpleBlueGradient)" transform="translate(175,426)"/>
<path d="M0 0 C0.66 0 1.32 0 2 0 C2.01981934 0.59014893 2.03963867 1.18029785 2.06005859 1.78833008 C2.15534659 4.46350096 2.26500939 7.13789498 2.375 9.8125 C2.4059375 10.74126953 2.436875 11.67003906 2.46875 12.62695312 C2.50742187 13.51962891 2.54609375 14.41230469 2.5859375 15.33203125 C2.63306885 16.56530151 2.63306885 16.56530151 2.68115234 17.82348633 C2.88373622 20.28952937 2.88373622 20.28952937 5 23 C5 24.32 5 25.64 5 27 C3.68 27.33 2.36 27.66 1 28 C0.24976563 26.43572266 0.24976563 26.43572266 -0.515625 24.83984375 C-3.05105459 20.40284197 -6.46682911 18.18988933 -10.75 15.5625 C-11.44738281 15.11712891 -12.14476562 14.67175781 -12.86328125 14.21289062 C-14.56664755 13.12786963 -16.28213381 12.0619148 -18 11 C-16.61816406 9.49243164 -16.61816406 9.49243164 -15 8 C-11.51961894 8.22291697 -9.05957619 10.12058705 -6.25 12.0625 C-5.05117188 12.88427734 -5.05117188 12.88427734 -3.828125 13.72265625 C-3.22484375 14.14417969 -2.6215625 14.56570313 -2 15 C-1.90912109 13.50146484 -1.90912109 13.50146484 -1.81640625 11.97265625 C-1.73261719 10.68230469 -1.64882813 9.39195312 -1.5625 8.0625 C-1.48128906 6.77472656 -1.40007812 5.48695313 -1.31640625 4.16015625 C-1 1 -1 1 0 0 Z " fill="url(#purpleBlueGradient)" transform="translate(356,415)"/>
<path d="M0 0 C1.65 0 3.3 0 5 0 C6.77967263 8.04030671 8.43630637 15.71017896 8 24 C6.35 24.33 4.7 24.66 3 25 C2.34 20.05 1.68 15.1 1 10 C-0.32 11.32 -1.64 12.64 -3 14 C-3.99 14.33 -4.98 14.66 -6 15 C-4.40109514 9.80355921 -2.25861997 4.93387858 0 0 Z " fill="url(#purpleBlueGradient)" transform="translate(296,438)"/>
<path d="M0 0 C2.475 0.99 2.475 0.99 5 2 C2.01067422 7.84868087 -1.84651084 12.62802023 -6.07421875 17.64453125 C-8.00911425 19.83497151 -8.00911425 19.83497151 -9 22 C-10.9375 21.625 -10.9375 21.625 -13 21 C-13.33 20.34 -13.66 19.68 -14 19 C-9.38 12.73 -4.76 6.46 0 0 Z " fill="url(#purpleBlueGradient)" transform="translate(125,399)"/>
<path d="M0 0 C1.65 0.33 3.3 0.66 5 1 C3.405608 9.38263675 1.53454617 17.21323332 -2 25 C-3.32 24.67 -4.64 24.34 -6 24 C-5.43189471 18.20140805 -4.26320265 13.02313406 -2.4375 7.5 C-2.08655273 6.40945313 -2.08655273 6.40945313 -1.72851562 5.296875 C-1.15867219 3.52919739 -0.58024596 1.76429031 0 0 Z " fill="url(#purpleBlueGradient)" transform="translate(194,434)"/>
<path d="M0 0 C0.33 1.32 0.66 2.64 1 4 C-13.4 14 -13.4 14 -19 14 C-19.33 13.01 -19.66 12.02 -20 11 C-19.2265625 10.70867187 -18.453125 10.41734375 -17.65625 10.1171875 C-10.99745829 7.49652443 -5.4452107 4.66045975 0 0 Z " fill="url(#purpleBlueGradient)" transform="translate(327,328)"/>
<path d="M0 0 C3.15245467 0.21741067 4.0681082 1.06994896 6.3125 3.375 C6.869375 4.24125 7.42625 5.1075 8 6 C7.67 6.99 7.34 7.98 7 9 C3.625 9.125 3.625 9.125 0 9 C-0.66 8.34 -1.32 7.68 -2 7 C-1.43181818 1.43181818 -1.43181818 1.43181818 0 0 Z " fill="url(#purpleBlueGradient)" transform="translate(229,455)"/>
<path d="M0 0 C0 4.05959279 -1.51778536 5.00697946 -4.25 7.9375 C-5.03890625 8.79214844 -5.8278125 9.64679688 -6.640625 10.52734375 C-10.86874955 14.95847428 -14.97047252 18.51801944 -20 22 C-18.51346494 18.53370165 -16.54277649 16.30977964 -13.8671875 13.671875 C-12.65869141 12.47304687 -12.65869141 12.47304687 -11.42578125 11.25 C-10.58402344 10.425 -9.74226563 9.6 -8.875 8.75 C-8.02550781 7.90953125 -7.17601562 7.0690625 -6.30078125 6.203125 C-4.20495077 4.13084317 -2.10459287 2.06337607 0 0 Z " fill="url(#purpleBlueGradient)" transform="translate(315,209)"/>
<path d="M0 0 C3.63094642 2.64960955 5.89851796 5.01824456 8 9 C5.09399739 10.25664978 3.20395416 11 0 11 C0 7.37 0 3.74 0 0 Z " fill="url(#purpleBlueGradient)" transform="translate(321,437)"/>
<path d="M0 0 C3.93673644 1.31224548 6.22719294 2.91910327 9 6 C6.6875 8.0625 6.6875 8.0625 4 10 C3.01 9.67 2.02 9.34 1 9 C0.67 6.03 0.34 3.06 0 0 Z " fill="url(#purpleBlueGradient)" transform="translate(377,410)"/>
<path d="M0 0 C-0.99 2.64 -1.98 5.28 -3 8 C-7.75 6.8125 -7.75 6.8125 -10 4 C-10 3.34 -10 2.68 -10 2 C-3.375 -1.125 -3.375 -1.125 0 0 Z " fill="url(#purpleBlueGradient)" transform="translate(105,390)"/>
<path d="M0 0 C0.99 0.33 1.98 0.66 3 1 C1.77989654 5.03572682 0.54329882 8.60893491 -2 12 C-4.6875 13.3125 -4.6875 13.3125 -7 14 C-5.23570801 9.02790438 -2.6060834 4.56561939 0 0 Z " fill="url(#purpleBlueGradient)" transform="translate(154,418)"/>
<path d="M0 0 C0.66 0.33 1.32 0.66 2 1 C1 4 1 4 -1.21484375 5.16796875 C-2.11332031 5.50441406 -3.01179687 5.84085938 -3.9375 6.1875 C-4.83339844 6.53167969 -5.72929687 6.87585938 -6.65234375 7.23046875 C-9 8 -9 8 -11 8 C-11 7.34 -11 6.68 -11 6 C-11.66 5.67 -12.32 5.34 -13 5 C-12.31292969 4.80664062 -11.62585938 4.61328125 -10.91796875 4.4140625 C-10.01691406 4.15367187 -9.11585938 3.89328125 -8.1875 3.625 C-7.29417969 3.36976563 -6.40085938 3.11453125 -5.48046875 2.8515625 C-2.79532104 2.04733339 -2.79532104 2.04733339 0 0 Z " fill="url(#purpleBlueGradient)" transform="translate(169,160)"/>
<path d="M0 0 C0.66 0.33 1.32 0.66 2 1 C0.52247791 4.89528552 -1.40457329 6.03885816 -5 8 C-7.00580329 9.32458708 -9.00715862 10.6559907 -11 12 C-8.84618556 6.71336455 -4.57763162 3.22129633 0 0 Z " fill="url(#purpleBlueGradient)" transform="translate(394,190)"/>
<path d="M0 0 C-2 3 -2 3 -4.1640625 3.51171875 C-4.97617188 3.56972656 -5.78828125 3.62773437 -6.625 3.6875 C-7.85089844 3.78611328 -7.85089844 3.78611328 -9.1015625 3.88671875 C-9.72804687 3.92410156 -10.35453125 3.96148437 -11 4 C-10.67 3.01 -10.34 2.02 -10 1 C-6.34742296 -0.62336757 -3.80637601 -1.46399077 0 0 Z " fill="url(#purpleBlueGradient)" transform="translate(170,340)"/>
<path d="M0 0 C0.33 0.99 0.66 1.98 1 3 C-0.09779824 4.15193623 -1.20349446 5.29634937 -2.3125 6.4375 C-2.92738281 7.07558594 -3.54226562 7.71367187 -4.17578125 8.37109375 C-6 10 -6 10 -9 11 C-7.59928507 5.70841026 -4.14512755 3.22521956 0 0 Z " fill="url(#purpleBlueGradient)" transform="translate(179,152)"/>
<path d="M0 0 C2 1 2 1 3 3 C-0.63 4.32 -4.26 5.64 -8 7 C-7.67 5.68 -7.34 4.36 -7 3 C-3.5625 1.1875 -3.5625 1.1875 0 0 Z " fill="url(#purpleBlueGradient)" transform="translate(177,335)"/>
<path d="M0 0 C0.66 0.33 1.32 0.66 2 1 C2 1.66 2 2.32 2 3 C-4.625 6 -4.625 6 -8 6 C-8 5.34 -8 4.68 -8 4 C-6.71349294 3.30289269 -5.42059335 2.61757124 -4.125 1.9375 C-3.40570313 1.55464844 -2.68640625 1.17179688 -1.9453125 0.77734375 C-1.30335938 0.52082031 -0.66140625 0.26429688 0 0 Z " fill="url(#purpleBlueGradient)" transform="translate(364,154)"/>
<path d="M0 0 C0 3.96130371 -1.34877125 4.82914401 -4 7.6875 C-4.7425 8.49574219 -5.485 9.30398437 -6.25 10.13671875 C-6.8275 10.75160156 -7.405 11.36648437 -8 12 C-8.66 11.34 -9.32 10.68 -10 10 C-6.7 6.7 -3.4 3.4 0 0 Z " fill="url(#purpleBlueGradient)" transform="translate(315,209)"/>
<path d="M0 0 C0.66 0.33 1.32 0.66 2 1 C1.00233891 3.49415272 0.31383315 4.78740335 -1.9375 6.3125 C-4 7 -4 7 -7 6 C-4.74259377 3.66475218 -2.7194239 1.81294927 0 0 Z " fill="url(#purpleBlueGradient)" transform="translate(372,149)"/>
<path d="M0 0 C0.33 0.66 0.66 1.32 1 2 C-0.109375 4.3828125 -0.109375 4.3828125 -1.75 7.125 C-2.28109375 8.03507813 -2.8121875 8.94515625 -3.359375 9.8828125 C-3.90078125 10.58148438 -4.4421875 11.28015625 -5 12 C-5.99 12 -6.98 12 -8 12 C-6.59023295 8.96147295 -4.91129772 6.4060405 -2.875 3.75 C-2.06675781 2.69039062 -2.06675781 2.69039062 -1.2421875 1.609375 C-0.83226562 1.07828125 -0.42234375 0.5471875 0 0 Z " fill="url(#purpleBlueGradient)" transform="translate(253,128)"/>
<path d="M0 0 C0.66 0.33 1.32 0.66 2 1 C-0.97 3.97 -3.94 6.94 -7 10 C-7.66 9.34 -8.32 8.68 -9 8 C-6.03 5.36 -3.06 2.72 0 0 Z " fill="url(#purpleBlueGradient)" transform="translate(391,195)"/>
<path d="M0 0 C-1.45255699 3.82946843 -3.42895561 5.12050295 -7 7 C-7 5.68 -7 4.36 -7 3 C-2.92857143 0 -2.92857143 0 0 0 Z " fill="url(#purpleBlueGradient)" transform="translate(252,115)"/>
<path d="M0 0 C0.66 0.33 1.32 0.66 2 1 C1.3125 2.9375 1.3125 2.9375 0 5 C-2.625 5.75 -2.625 5.75 -5 6 C-3.63016497 2.83884224 -3.0109362 2.0072908 0 0 Z " fill="url(#purpleBlueGradient)" transform="translate(394,190)"/>
<path d="M0 0 C-0.33 0.99 -0.66 1.98 -1 3 C-2.65 3.33 -4.3 3.66 -6 4 C-6 2.68 -6 1.36 -6 0 C-3 -1 -3 -1 0 0 Z " fill="url(#purpleBlueGradient)" transform="translate(362,99)"/>
</svg>
